<?xml version="1.0" encoding="utf-8"?>
<!-- Svg Vector Icons : http://www.onlinewebfonts.com/icon -->
<!DOCTYPE svg PUBLIC "-//W3C//DTD SVG 1.1//EN" "http://www.w3.org/Graphics/SVG/1.1/DTD/svg11.dtd">
<svg version="1.1" xmlns="http://www.w3.org/2000/svg" xmlns:xlink="http://www.w3.org/1999/xlink" x="0px" y="0px" viewBox="0 0 1000 1000" enable-background="new 0 0 1000 1000" xml:space="preserve">
<metadata> Svg Vector Icons : http://www.onlinewebfonts.com/icon </metadata>
<g><g transform="translate(0.000000,512.000000) scale(0.100000,-0.100000)"><path d="M3927.8,5009.6c-545.7-82.3-850.1-191.5-1187.1-428.9c-254.6-178.1-518.9-482.5-608.9-698.8c-21.1-47.9-44-61.3-181.9-99.6c-754.4-208.7-1317.3-899.9-1432.2-1759.6c-32.5-247-13.4-733.3,40.2-982.2C605.9,806.9,709.3,473.8,789.7,290l55.5-128.3l-95.7-157c-53.6-88.1-122.5-241.3-157-340.8c-55.5-170.4-59.3-203-61.3-461.4c-1.9-312.1,23-434.6,126.4-647.1c120.6-243.2,373.4-503.5,605-622.3c97.6-49.8,118.7-68.9,113-99.6c-5.8-21.1-28.7-111.1-51.7-201c-55.5-206.8-45.9-495.9,19.1-687.4c155.1-444.2,622.3-802.2,1187.1-909.5c88.1-17.2,160.8-32.5,162.7-36.4c1.9-1.9,32.6-59.4,68.9-128.3c86.2-168.5,312.1-392.5,478.7-472.9c231.7-113,561-178.1,898-178.1c319.8,1.9,551.4,82.3,750.5,266.1l111,101.5l107.2-99.6c262.3-237.4,591.6-315.9,993.7-231.7c532.3,109.1,949.7,407.8,1143,819.5c61.3,130.2,49.8,124.5,292.9,151.2c607,65.1,1066.5,394.4,1160.3,834.8c42.1,191.4,1.9,530.4-90,771.6c-7.7,15.3,38.3,51.7,120.6,93.8c254.6,135.9,459.5,335.1,599.3,580.1c256.6,451.9,220.2,1072.2-88.1,1533.6l-84.2,122.5l55.5,128.3c80.4,181.9,183.8,516.9,231.7,748.6c53.6,248.9,72.8,735.2,40.2,982.2c-45.9,337-170.4,683.5-346.5,949.7c-260.4,396.3-652.9,689.3-1085.6,809.9c-137.9,38.3-160.8,51.7-181.9,99.6c-47.9,114.9-216.3,350.4-338.9,472.9c-400.2,396.3-951.6,626.1-1591.1,660.6c-400.2,23-643.3-44-827.1-220.2L5000,4686l-111,109.1c-122.5,118.7-243.2,174.2-448,208.7C4326,5021.1,4029.3,5026.8,3927.8,5009.6z M4530.9,4578.8c120.6-65.1,199.1-195.3,241.2-407.8c32.5-155.1,47.9-7859.6,17.2-8056.8c-24.9-166.6-72.8-256.6-181.9-354.2c-128.3-113-239.3-143.6-495.9-141.7c-256.6,3.8-342.7,15.3-518.9,65.1c-302.5,88.1-453.8,241.2-562.9,574.4c-36.4,107.2-49.8,130.2-84.2,130.2c-135.9,1.9-423.1,44-530.4,78.5c-381,126.4-635.7,365.7-716.1,677.8c-59.4,222.1-28.7,388.7,126.4,696.9c55.5,111.1,103.4,206.8,107.2,214.5c3.8,5.7-65.1,40.2-153.2,74.7c-377.2,151.3-545.7,266.1-689.3,467.2C962-1216.8,912.2-1054.1,914.2-807.1c1.9,214.5,57.4,417.4,160.8,597.4c164.7,285.3,584,599.3,913.3,683.5c134,34.5,423.1,40.2,591.6,9.6c241.3-42.1,534.2-162.7,683.5-281.5c95.7-76.6,166.6-91.9,248.9-51.7c72.8,34.5,109.1,95.7,109.1,183.8c0,160.8-446.1,421.2-878.8,515c-562.9,120.6-984.1,38.3-1441.7-279.5c-82.3-57.4-151.3-103.4-157-103.4c-17.2,0-164.7,478.7-204.9,670.1c-57.4,270-61.3,756.3-9.6,986c95.7,415.5,287.2,742.9,574.4,986c208.7,178.1,425.1,277.6,744.8,342.7l153.2,30.6l32.6,95.7c170.4,503.5,681.6,892.2,1334.5,1014.8C3973.7,4630.5,4450.5,4622.8,4530.9,4578.8z M6382.4,4557.7c585.9-153.2,1026.2-518.9,1183.3-980.3l32.5-95.7l153.2-30.6c319.7-65.1,536.1-164.7,744.8-342.7c287.2-243.2,478.7-570.6,574.4-986c51.7-229.8,47.9-716.1-9.6-986c-59.3-279.5-168.5-612.7-222.1-670.1c-23-26.8-70.8-103.4-105.3-172.3C8513.4-158,8078.7-397.4,7379.9-452.9c-141.7-11.5-277.6-28.7-302.5-38.3c-109.1-42.1-141.7-204.9-59.3-300.6c40.2-47.9,59.3-53.6,193.4-59.3c350.4-19.1,813.7,80.4,1145,245.1c172.3,86.2,444.2,287.2,499.7,373.3c17.2,26.8,40.2,47.9,49.8,47.9c9.6,0,44-49.8,74.7-111c181.9-358,166.6-760.1-36.4-1070.3c-137.9-208.7-317.8-340.8-651-472.9c-99.6-40.2-189.6-80.4-199.1-88.1c-9.6-9.6,19.1-99.6,72.8-218.3c160.8-361.9,199.1-612.7,118.7-804.2c-105.3-254.6-492.1-432.7-942-440.4c-210.6-1.9-210.6-1.9-361.9,74.7c-201,101.5-402.1,296.8-484.4,469.1c-65.1,139.8-118.7,371.4-118.7,517c0,241.3-170.4,367.6-321.7,239.3c-74.7-61.3-84.2-120.6-59.4-367.6c51.7-543.7,308.3-938.2,779.3-1194.7c65.1-34.5,118.7-74.7,118.7-86.2c0-49.8-162.7-262.3-264.2-344.6c-122.5-99.6-220.2-153.2-425-227.9c-126.4-47.9-172.3-53.6-373.3-55.5c-204.9-1.9-239.3,1.9-315.9,42.1c-181.9,95.7-271.9,222.1-306.3,427c-26.8,166.6-26.8,7561,0,7867.3c28.7,333.1,86.2,484.4,212.5,580.1c80.4,59.4,162.7,68.9,476.7,63.2C6141.1,4607.5,6231.1,4596,6382.4,4557.7z"/><path d="M3692.3,3005c-34.5-32.6-55.5-80.4-72.8-164.7c-61.3-317.8-359.9-515-834.8-553.3c-212.5-15.3-281.5-46-314-132.1c-47.9-124.5,32.5-245.1,178.1-264.2c95.7-13.4,350.4,15.3,524.6,59.4c463.3,116.8,827.1,503.5,834.8,882.7c1.9,107.2-40.2,187.6-109.1,206.8C3816.8,3062.4,3742.1,3050.9,3692.3,3005z"/><path d="M2229.5-870.3c-95.7-9.6-158.9-82.3-158.9-181.9c0-122.5,55.5-168.5,258.5-224c392.5-103.4,633.8-310.2,781.2-670.1c65.1-157,86.2-258.5,118.7-545.7c23-208.7,30.6-233.6,76.6-271.9c68.9-59.3,181.9-59.3,252.7,1.9c47.9,40.2,53.6,59.3,59.3,191.5c9.6,172.3-36.4,472.9-101.5,664.4c-181.9,534.2-582.1,899.9-1114.3,1016.7C2340.6-876,2264-866.5,2229.5-870.3z"/><path d="M6482,2646.9c-141.7-68.9-134.1-337,19.1-658.6c176.1-373.4,553.3-674,1007.1-802.2c181.9-51.7,566.7-95.7,658.7-76.6c120.6,24.9,191.5,147.4,147.4,260.4c-32.5,88.1-101.5,116.8-325.5,134c-361.9,26.8-618.4,116.8-844.4,294.9c-197.2,155.1-321.7,363.8-371.4,620.3c-21.1,116.8-36.4,151.3-86.2,195.3C6623.6,2669.9,6554.7,2681.4,6482,2646.9z"/></g></g>
</svg>